<svg version="1.1" id="Layer_1" xmlns="http://www.w3.org/2000/svg" xmlns:xlink="http://www.w3.org/1999/xlink" x="0px" y="0px"
	 width="100%" viewBox="0 0 301 167" enable-background="new 0 0 301 167" xml:space="preserve">
<path fill="#000000" opacity="1.000000" stroke="none" 
	d="
M196.000000,168.000000 
	C130.666672,168.000000 65.833351,168.000000 1.000017,168.000000 
	C1.000012,112.333351 1.000012,56.666695 1.000006,1.000032 
	C101.333305,1.000022 201.666611,1.000022 301.999939,1.000011 
	C301.999939,56.666637 301.999939,112.333275 301.999969,167.999954 
	C266.833344,168.000000 231.666672,168.000000 196.000000,168.000000 
M78.757141,85.747314 
	C79.870735,83.519073 80.984329,81.290833 82.905571,79.000465 
	C88.157364,76.686409 93.494041,74.541054 98.614052,71.965065 
	C100.361366,71.085938 101.564331,69.124908 103.016022,67.658211 
	C101.359314,66.403419 99.702614,65.148628 97.747986,63.236443 
	C92.196068,58.267517 86.615845,59.653355 80.322342,63.223137 
	C76.417320,65.438522 72.512291,67.653908 68.661240,69.838669 
	C66.395584,68.363663 64.812973,66.931732 68.817940,64.970993 
	C72.248451,62.997211 75.678963,61.023430 79.824501,58.989578 
	C80.778252,58.510860 81.732002,58.032143 83.920532,56.933647 
	C77.443382,55.452610 72.447220,54.914810 67.311081,59.178108 
	C65.847832,60.079273 64.384590,60.980438 62.270199,62.200352 
	C61.127926,62.814400 59.416317,63.156673 58.965614,64.100838 
	C58.109745,65.893806 56.969673,68.615494 57.726349,69.918663 
	C60.217209,74.208488 69.595680,76.358200 74.117218,73.920418 
	C79.221130,71.168655 84.110161,68.018341 89.790588,64.994270 
	C90.489243,65.010872 91.187897,65.027473 92.172325,65.664635 
	C93.088158,66.228149 94.003998,66.791664 95.423851,67.665306 
	C91.882240,69.493507 88.776520,70.868874 85.917244,72.641716 
	C83.441185,74.176941 81.244698,76.163071 78.191727,77.995239 
	C73.970894,78.256874 74.512955,81.141701 74.237495,84.385315 
	C74.226830,86.264732 74.216171,88.144157 73.836349,90.631897 
	C70.560898,89.146324 67.285454,87.660751 63.330074,85.833412 
	C62.219555,84.075569 60.153610,82.294403 60.195843,80.564713 
	C60.285946,76.874939 58.743374,74.634018 55.505558,72.176155 
	C55.005787,72.959793 54.111111,73.722244 54.067768,74.530365 
	C53.666004,82.020714 53.309017,89.517624 53.212303,97.016151 
	C53.195919,98.286446 54.482193,99.573540 55.725597,101.268295 
	C56.763638,102.102898 57.801678,102.937500 60.032604,104.731201 
	C60.032604,99.129913 60.032604,95.164619 60.032604,90.978836 
	C61.815159,91.499489 62.881985,91.811096 64.246414,92.748779 
	C70.291878,96.195595 76.486267,99.295433 74.142052,108.369713 
	C73.151871,112.202621 76.338974,114.207428 79.796532,115.604553 
	C79.796532,107.520729 79.796532,99.747643 79.958313,91.209053 
	C79.339851,89.491768 78.721390,87.774483 78.757141,85.747314 
M89.309875,80.231506 
	C86.029907,82.270821 82.017487,83.795364 83.025932,89.887566 
	C83.025932,97.996658 83.025932,106.105751 83.025932,114.214836 
	C83.483627,114.516823 83.941322,114.818802 84.399017,115.120781 
	C85.919556,113.073799 88.920639,110.835815 88.685776,109.015305 
	C87.952148,103.328651 90.814430,100.650574 95.119438,98.392868 
	C96.223656,97.813759 97.124329,96.846512 98.836861,96.002304 
	C99.558784,96.491631 100.780319,96.875214 100.910416,97.489815 
	C101.326744,99.456726 101.338623,101.509232 101.506622,103.528702 
	C102.032135,103.757858 102.557648,103.987022 103.083153,104.216179 
	C104.434616,102.471893 105.786087,100.727615 107.882584,98.557220 
	C107.921440,91.487900 108.005142,84.418236 107.951157,77.349625 
	C107.942978,76.280045 107.293968,75.215363 106.267319,73.769470 
	C102.378670,71.465057 99.774666,74.120102 96.327057,76.211212 
	C94.221275,77.527519 92.115486,78.843834 89.309875,80.231506 
M248.966980,92.929970 
	C248.903458,86.950912 248.839935,80.971863 248.966476,74.101929 
	C248.966476,72.166016 248.966476,70.230110 248.966476,67.993217 
	C232.911041,67.993217 217.268326,67.743736 201.636719,68.054008 
	C180.302383,68.477478 158.975357,69.293823 137.648041,70.024673 
	C133.729584,70.158958 129.780029,70.432655 125.925812,71.105675 
	C121.956833,71.798744 119.246414,74.106850 117.948456,78.245201 
	C115.523369,85.977242 114.529594,93.788841 114.930252,101.889259 
	C115.248528,108.324196 116.700333,110.900711 123.340858,111.899147 
	C130.917160,113.038284 138.610260,113.762924 146.268539,113.927933 
	C171.339828,114.468140 196.419159,114.623726 221.493530,115.039917 
	C227.741852,115.143639 233.987289,115.610199 240.225784,116.032104 
	C243.052475,116.223274 245.858963,116.712753 248.752777,117.076736 
	C248.883179,116.035233 248.997116,115.554810 248.995346,115.074821 
	C248.970840,108.416534 248.930450,101.758308 248.965317,94.462860 
	C248.919479,94.254105 248.873642,94.045349 248.966980,92.929970 
z"/>
<path fill="#FCFCFC" opacity="1.000000" stroke="none" 
	d="
M248.893967,95.100067 
	C248.930450,101.758308 248.970840,108.416534 248.995346,115.074821 
	C248.997116,115.554810 248.883179,116.035233 248.752777,117.076736 
	C245.858963,116.712753 243.052475,116.223274 240.225784,116.032104 
	C233.987289,115.610199 227.741852,115.143639 221.493530,115.039917 
	C196.419159,114.623726 171.339828,114.468140 146.268539,113.927933 
	C138.610260,113.762924 130.917160,113.038284 123.340858,111.899147 
	C116.700333,110.900711 115.248528,108.324196 114.930252,101.889259 
	C114.529594,93.788841 115.523369,85.977242 117.948456,78.245201 
	C119.246414,74.106850 121.956833,71.798744 125.925812,71.105675 
	C129.780029,70.432655 133.729584,70.158958 137.648041,70.024673 
	C158.975357,69.293823 180.302383,68.477478 201.636719,68.054008 
	C217.268326,67.743736 232.911041,67.993217 248.966476,67.993217 
	C248.966476,70.230110 248.966476,72.166016 248.723724,74.535004 
	C248.480988,74.968079 248.185165,74.948540 247.775848,74.843765 
	C244.454102,76.315521 241.541687,77.892067 238.165359,79.719734 
	C236.141434,78.303612 235.409790,72.711777 229.819702,75.415474 
	C231.951767,78.553215 234.041473,81.628601 236.092255,84.646713 
	C233.661133,88.113907 231.451859,91.264694 229.221130,94.446098 
	C235.506821,97.016457 235.790237,90.321098 239.527283,88.576828 
	C241.774200,92.132584 243.696548,96.163277 248.893967,95.100067 
M232.332733,109.178520 
	C232.589218,108.001740 232.845718,106.824959 233.102203,105.648170 
	C232.846069,105.593597 232.589935,105.539017 232.333801,105.484436 
	C232.083496,106.672493 231.833191,107.860550 231.326248,109.170448 
	C231.453888,109.343727 231.581528,109.517006 232.332733,109.178520 
M138.131256,74.841461 
	C134.422607,74.887222 130.713974,74.932976 126.431671,74.931076 
	C126.335098,75.275558 126.238525,75.620041 125.977936,76.893272 
	C125.977936,82.817711 125.977936,88.742157 125.977936,94.657791 
	C130.913574,94.657791 135.418198,95.148849 139.763702,94.527344 
	C144.652420,93.828163 145.632278,90.721924 143.306839,86.397675 
	C142.649826,85.175903 142.142776,83.188309 142.688232,82.129738 
	C144.543884,78.528465 142.753433,76.790512 139.514343,75.025780 
	C139.514343,75.025780 139.025574,75.097794 138.131256,74.841461 
M195.003677,94.977669 
	C202.734726,93.425591 204.087662,90.014122 199.206635,84.379768 
	C201.969223,79.039749 201.018875,75.602043 196.192001,75.044296 
	C192.011993,74.561310 187.731964,74.943901 183.426346,74.943901 
	C183.426346,81.853424 183.426346,88.229362 183.426346,95.000450 
	C187.202255,95.000450 190.656891,95.000450 195.003677,94.977669 
M205.735306,88.441399 
	C208.747513,94.035591 212.757690,96.056366 218.798050,95.023842 
	C223.302200,94.253922 226.697372,90.755081 227.196075,86.367065 
	C227.687454,82.043488 226.488754,78.424629 222.646927,76.053215 
	C218.435806,73.453835 214.038498,73.441566 209.908112,76.033829 
	C205.634781,78.715775 204.202484,82.765457 205.735306,88.441399 
M167.290588,74.925896 
	C161.533432,75.574783 157.587585,80.166969 158.113693,85.605980 
	C158.686630,91.529037 163.557968,95.444931 169.966003,95.133614 
	C175.951385,94.842827 178.705704,91.510780 178.443069,85.091560 
	C175.400620,85.091560 172.370667,85.091560 169.340714,85.091560 
	C169.275482,85.419250 169.210266,85.746941 169.145035,86.074631 
	C170.771332,86.649666 172.397644,87.224701 174.387497,87.928284 
	C171.990906,90.527794 169.338501,92.586746 166.600311,90.145996 
	C164.581711,88.346626 162.305405,84.706017 162.873703,82.634872 
	C163.723099,79.539436 167.325287,78.171326 171.098663,79.076843 
	C173.003525,79.533981 175.027939,79.493027 177.961716,79.767380 
	C175.001740,74.851822 171.726028,74.434479 167.290588,74.925896 
M153.965408,90.319977 
	C153.965408,85.206520 153.965408,80.093056 153.965408,74.979599 
	C153.514313,74.697395 153.063217,74.415192 152.612122,74.132988 
	C151.417984,75.433388 149.290451,76.667992 149.193344,78.045723 
	C148.799530,83.632317 149.029724,89.262894 149.029724,94.609390 
	C152.764847,95.682945 154.539337,94.892014 153.965408,90.319977 
M229.535507,107.289963 
	C229.535507,107.289963 229.389999,107.595413 229.389999,107.595413 
	C229.389999,107.595413 229.729187,107.527077 229.535507,107.289963 
z"/>
<path fill="#FF9219" opacity="1.000000" stroke="none" 
	d="
M89.092644,65.041359 
	C84.110161,68.018341 79.221130,71.168655 74.117218,73.920418 
	C69.595680,76.358200 60.217209,74.208488 57.726349,69.918663 
	C56.969673,68.615494 58.109745,65.893806 58.965614,64.100838 
	C59.416317,63.156673 61.127926,62.814400 62.756081,62.360306 
	C64.858025,63.360275 66.474098,64.200287 68.090164,65.040306 
	C64.812973,66.931732 66.395584,68.363663 68.661240,69.838669 
	C72.512291,67.653908 76.417320,65.438522 80.878288,63.508900 
	C83.987038,64.210228 86.539841,64.625793 89.092644,65.041359 
z"/>
<path fill="#FE1822" opacity="1.000000" stroke="none" 
	d="
M64.010002,86.175179 
	C67.285454,87.660751 70.560898,89.146324 74.277939,90.559250 
	C76.411865,90.982582 78.104202,91.478569 79.796532,91.974556 
	C79.796532,99.747643 79.796532,107.520729 79.796532,115.604553 
	C76.338974,114.207428 73.151871,112.202621 74.142052,108.369713 
	C76.486267,99.295433 70.291878,96.195595 64.112335,92.010056 
	C63.988831,89.572617 63.999416,87.873894 64.010002,86.175179 
z"/>
<path fill="#747474" opacity="1.000000" stroke="none" 
	d="
M248.929642,94.781464 
	C243.696548,96.163277 241.774200,92.132584 239.527283,88.576828 
	C235.790237,90.321098 235.506821,97.016457 229.221130,94.446098 
	C231.451859,91.264694 233.661133,88.113907 236.092255,84.646713 
	C234.041473,81.628601 231.951767,78.553215 229.819702,75.415474 
	C235.409790,72.711777 236.141434,78.303612 238.165359,79.719734 
	C241.541687,77.892067 244.454102,76.315521 247.703613,75.192276 
	C241.525497,84.899994 241.525497,84.899994 248.827805,93.836594 
	C248.873642,94.045349 248.919479,94.254105 248.929642,94.781464 
z"/>
<path fill="#EF161F" opacity="1.000000" stroke="none" 
	d="
M63.670036,86.004295 
	C63.999416,87.873894 63.988831,89.572617 63.963531,91.697014 
	C62.881985,91.811096 61.815159,91.499489 60.032604,90.978836 
	C60.032604,95.164619 60.032604,99.129913 60.032604,104.731201 
	C57.801678,102.937500 56.763638,102.102898 55.426064,100.602676 
	C55.079849,95.120667 54.892776,90.300308 55.028656,85.489082 
	C55.148254,81.254402 55.629028,77.029922 55.950298,72.800934 
	C58.743374,74.634018 60.285946,76.874939 60.195843,80.564713 
	C60.153610,82.294403 62.219555,84.075569 63.670036,86.004295 
z"/>
<path fill="#095CD8" opacity="1.000000" stroke="none" 
	d="
M98.118515,96.057571 
	C97.124329,96.846512 96.223656,97.813759 95.119438,98.392868 
	C90.814430,100.650574 87.952148,103.328651 88.685776,109.015305 
	C88.920639,110.835815 85.919556,113.073799 84.399017,115.120781 
	C83.941322,114.818802 83.483627,114.516823 83.025932,114.214836 
	C83.025932,106.105751 83.025932,97.996658 83.422607,89.473984 
	C85.500572,89.647346 87.220947,92.165504 88.899094,89.357925 
	C89.323677,91.228798 89.674622,92.700798 89.991486,94.482018 
	C89.161919,98.141624 91.532494,97.911652 93.467583,97.636757 
	C95.060516,97.410461 96.571304,96.605865 98.118515,96.057571 
z"/>
<path fill="#FE8F19" opacity="1.000000" stroke="none" 
	d="
M78.924644,77.949898 
	C81.244698,76.163071 83.441185,74.176941 85.917244,72.641716 
	C88.776520,70.868874 91.882240,69.493507 95.423851,67.665306 
	C94.003998,66.791664 93.088158,66.228149 92.447014,65.342834 
	C94.496437,64.645302 96.271172,64.269569 98.045906,63.893837 
	C99.702614,65.148628 101.359314,66.403419 103.016022,67.658211 
	C101.564331,69.124908 100.361366,71.085938 98.614052,71.965065 
	C93.494041,74.541054 88.157364,76.686409 82.190506,78.893463 
	C80.625175,78.507614 79.774910,78.228752 78.924644,77.949898 
z"/>
<path fill="#1D72DF" opacity="1.000000" stroke="none" 
	d="
M98.477684,96.029938 
	C96.571304,96.605865 95.060516,97.410461 93.467583,97.636757 
	C91.532494,97.911652 89.161919,98.141624 90.324402,94.315628 
	C93.462273,92.280243 96.233147,90.720459 99.012207,89.525642 
	C101.605545,91.183800 104.190681,92.477005 106.850395,94.134338 
	C106.995827,95.993431 107.066689,97.488388 107.137558,98.983337 
	C105.786087,100.727615 104.434616,102.471893 103.083153,104.216179 
	C102.557648,103.987022 102.032135,103.757858 101.506622,103.528702 
	C101.338623,101.509232 101.326744,99.456726 100.910416,97.489815 
	C100.780319,96.875214 99.558784,96.491631 98.477684,96.029938 
z"/>
<path fill="#379AEF" opacity="1.000000" stroke="none" 
	d="
M97.013039,76.166603 
	C99.774666,74.120102 102.378670,71.465057 106.613922,74.399048 
	C106.925133,77.690262 106.889732,80.351898 106.477676,83.007431 
	C102.805740,81.076729 97.579826,81.719231 97.013039,76.166603 
z"/>
<path fill="#F6F6F6" opacity="1.000000" stroke="none" 
	d="
M248.897400,93.383286 
	C241.525497,84.899994 241.525497,84.899994 248.112930,75.297050 
	C248.185165,74.948540 248.480988,74.968079 248.628693,74.980438 
	C248.839935,80.971863 248.903458,86.950912 248.897400,93.383286 
z"/>
<path fill="#2C89E8" opacity="1.000000" stroke="none" 
	d="
M96.670044,76.188904 
	C97.579826,81.719231 102.805740,81.076729 106.526718,83.351440 
	C106.906227,84.160675 106.860054,84.619812 106.572624,85.283310 
	C104.256439,89.009193 102.905823,84.858887 101.083084,84.617996 
	C100.015221,83.659966 98.894661,82.473465 98.040550,82.641479 
	C96.605026,82.923859 95.338928,84.067482 93.761719,84.611481 
	C92.351151,82.969498 91.180428,81.564819 90.009705,80.160141 
	C92.115486,78.843834 94.221275,77.527519 96.670044,76.188904 
z"/>
<path fill="#FF9D1A" opacity="1.000000" stroke="none" 
	d="
M97.896942,63.565140 
	C96.271172,64.269569 94.496437,64.645302 92.304123,65.032547 
	C91.187897,65.027473 90.489243,65.010872 89.441620,65.017815 
	C86.539841,64.625793 83.987038,64.210228 81.230202,63.478310 
	C86.615845,59.653355 92.196068,58.267517 97.896942,63.565140 
z"/>
<path fill="#2378E2" opacity="1.000000" stroke="none" 
	d="
M89.659790,80.195824 
	C91.180428,81.564819 92.351151,82.969498 93.454346,84.755188 
	C91.866364,86.410492 90.345909,87.684776 88.825447,88.959053 
	C87.220947,92.165504 85.500572,89.647346 83.498840,89.008080 
	C82.017487,83.795364 86.029907,82.270821 89.659790,80.195824 
z"/>
<path fill="#FFA117" opacity="1.000000" stroke="none" 
	d="
M68.454056,65.005646 
	C66.474098,64.200287 64.858025,63.360275 63.081650,62.200928 
	C64.384590,60.980438 65.847832,60.079273 67.883148,59.257565 
	C72.006638,59.241230 75.558060,59.145439 79.109474,59.049652 
	C75.678963,61.023430 72.248451,62.997211 68.454056,65.005646 
z"/>
<path fill="#F25E1C" opacity="1.000000" stroke="none" 
	d="
M78.558182,77.972565 
	C79.774910,78.228752 80.625175,78.507614 81.786682,78.924530 
	C80.984329,81.290833 79.870735,83.519073 78.138695,85.768021 
	C76.651176,85.175255 75.782112,84.561790 74.913040,83.948326 
	C74.512955,81.141701 73.970894,78.256874 78.558182,77.972565 
z"/>
<path fill="#FFBB17" opacity="1.000000" stroke="none" 
	d="
M79.466988,59.019615 
	C75.558060,59.145439 72.006638,59.241230 68.189316,59.113983 
	C72.447220,54.914810 77.443382,55.452610 83.920532,56.933647 
	C81.732002,58.032143 80.778252,58.510860 79.466988,59.019615 
z"/>
<path fill="#F63D1A" opacity="1.000000" stroke="none" 
	d="
M74.575272,84.166824 
	C75.782112,84.561790 76.651176,85.175255 77.811584,85.922958 
	C78.721390,87.774483 79.339851,89.491768 79.877426,91.591805 
	C78.104202,91.478569 76.411865,90.982582 74.462524,90.255081 
	C74.216171,88.144157 74.226830,86.264732 74.575272,84.166824 
z"/>
<path fill="#F15257" opacity="1.000000" stroke="none" 
	d="
M55.727928,72.488541 
	C55.629028,77.029922 55.148254,81.254402 55.028656,85.489082 
	C54.892776,90.300308 55.079849,95.120667 55.146576,100.394958 
	C54.482193,99.573540 53.195919,98.286446 53.212303,97.016151 
	C53.309017,89.517624 53.666004,82.020714 54.067768,74.530365 
	C54.111111,73.722244 55.005787,72.959793 55.727928,72.488541 
z"/>
<path fill="#D1E5FB" opacity="1.000000" stroke="none" 
	d="
M106.813873,85.078949 
	C106.860054,84.619812 106.906227,84.160675 106.903366,83.357529 
	C106.889732,80.351898 106.925133,77.690262 106.950958,74.588524 
	C107.293968,75.215363 107.942978,76.280045 107.951157,77.349625 
	C108.005142,84.418236 107.921440,91.487900 107.510071,98.770279 
	C107.066689,97.488388 106.995827,95.993431 106.926697,93.779572 
	C106.890251,90.400093 106.852066,87.739525 106.813873,85.078949 
z"/>
<path fill="#747474" opacity="1.000000" stroke="none" 
	d="
M194.557587,94.989059 
	C190.656891,95.000450 187.202255,95.000450 183.426346,95.000450 
	C183.426346,88.229362 183.426346,81.853424 183.426346,74.943901 
	C187.731964,74.943901 192.011993,74.561310 196.192001,75.044296 
	C201.018875,75.602043 201.969223,79.039749 199.206635,84.379768 
	C204.087662,90.014122 202.734726,93.425591 194.557587,94.989059 
M196.962799,89.574135 
	C195.681534,83.898216 191.505508,87.005043 188.271851,86.321167 
	C188.271851,88.139206 188.271851,89.513802 188.271851,91.635788 
	C191.292007,91.174500 193.948730,90.768723 196.962799,89.574135 
M193.084106,78.098633 
	C191.484512,78.098633 189.884933,78.098633 187.905441,78.098633 
	C188.092789,80.086647 188.222733,81.465324 188.424576,83.607132 
	C191.225906,82.829712 193.496582,82.199570 195.767227,81.569427 
	C195.152588,80.448288 194.537949,79.327148 193.084106,78.098633 
z"/>
<path fill="#1D1D1D" opacity="1.000000" stroke="none" 
	d="
M139.940475,75.275757 
	C142.753433,76.790512 144.543884,78.528465 142.688232,82.129738 
	C142.142776,83.188309 142.649826,85.175903 143.306839,86.397675 
	C145.632278,90.721924 144.652420,93.828163 139.763702,94.527344 
	C135.418198,95.148849 130.913574,94.657791 125.977936,94.657791 
	C125.977936,88.742157 125.977936,82.817711 126.265495,76.327888 
	C126.785896,75.548615 126.936653,75.287354 127.005325,74.978729 
	C130.713974,74.932976 134.422607,74.887222 138.639053,75.124519 
	C139.146851,75.407578 139.551956,75.567192 139.551956,75.567192 
	C139.551956,75.567192 139.940475,75.275757 139.940475,75.275757 
M131.482071,92.184998 
	C131.940140,92.331261 132.515915,92.732033 132.837540,92.583282 
	C135.267853,91.459213 139.669907,90.233246 139.673477,89.027885 
	C139.685211,85.066605 135.802490,86.375755 133.248123,86.118408 
	C132.511658,86.044205 131.744217,86.277260 130.530975,86.425743 
	C130.807480,88.353897 131.030457,89.908852 131.482071,92.184998 
M136.879028,82.874962 
	C137.387024,81.624855 137.895020,80.374756 138.403015,79.124664 
	C135.963547,78.669708 133.524063,78.214760 130.564392,77.662796 
	C130.829483,80.115952 130.980896,81.517082 131.136841,82.960281 
	C133.033539,82.960281 134.525558,82.960281 136.879028,82.874962 
z"/>
<path fill="#747474" opacity="1.000000" stroke="none" 
	d="
M205.588440,88.070374 
	C204.202484,82.765457 205.634781,78.715775 209.908112,76.033829 
	C214.038498,73.441566 218.435806,73.453835 222.646927,76.053215 
	C226.488754,78.424629 227.687454,82.043488 227.196075,86.367065 
	C226.697372,90.755081 223.302200,94.253922 218.798050,95.023842 
	C212.757690,96.056366 208.747513,94.035591 205.588440,88.070374 
M218.812637,90.799347 
	C223.045441,87.509087 224.258118,83.605553 221.132080,80.856468 
	C219.389923,79.324371 216.002838,78.506607 213.719055,79.009834 
	C210.031631,79.822365 209.303192,83.394196 210.187134,86.704094 
	C211.223373,90.584160 214.266037,91.654732 218.812637,90.799347 
z"/>
<path fill="#1E1E1E" opacity="1.000000" stroke="none" 
	d="
M167.683624,74.956085 
	C171.726028,74.434479 175.001740,74.851822 177.961716,79.767380 
	C175.027939,79.493027 173.003525,79.533981 171.098663,79.076843 
	C167.325287,78.171326 163.723099,79.539436 162.873703,82.634872 
	C162.305405,84.706017 164.581711,88.346626 166.600311,90.145996 
	C169.338501,92.586746 171.990906,90.527794 174.387497,87.928284 
	C172.397644,87.224701 170.771332,86.649666 169.145035,86.074631 
	C169.210266,85.746941 169.275482,85.419250 169.340714,85.091560 
	C172.370667,85.091560 175.400620,85.091560 178.443069,85.091560 
	C178.705704,91.510780 175.951385,94.842827 169.966003,95.133614 
	C163.557968,95.444931 158.686630,91.529037 158.113693,85.605980 
	C157.587585,80.166969 161.533432,75.574783 167.683624,74.956085 
z"/>
<path fill="#1D1D1D" opacity="1.000000" stroke="none" 
	d="
M153.965637,90.795937 
	C154.539337,94.892014 152.764847,95.682945 149.029724,94.609390 
	C149.029724,89.262894 148.799530,83.632317 149.193344,78.045723 
	C149.290451,76.667992 151.417984,75.433388 152.612122,74.132988 
	C153.063217,74.415192 153.514313,74.697395 153.965408,74.979599 
	C153.965408,80.093056 153.965408,85.206520 153.965637,90.795937 
z"/>
<path fill="#9E9E9E" opacity="1.000000" stroke="none" 
	d="
M231.582886,109.048607 
	C231.833191,107.860550 232.083496,106.672493 232.333801,105.484436 
	C232.589935,105.539017 232.846069,105.593597 233.102203,105.648170 
	C232.845718,106.824959 232.589218,108.001740 232.116119,109.249039 
	C231.899506,109.319565 231.582886,109.048607 231.582886,109.048607 
z"/>
<path fill="#000000" opacity="1.000000" stroke="none" 
	d="
M139.727417,75.150772 
	C139.940475,75.275757 139.551956,75.567192 139.551956,75.567192 
	C139.551956,75.567192 139.146851,75.407578 139.086212,75.252686 
	C139.025574,75.097794 139.514343,75.025780 139.727417,75.150772 
z"/>
<path fill="#000000" opacity="1.000000" stroke="none" 
	d="
M126.718498,74.954903 
	C126.936653,75.287354 126.785896,75.548615 126.347504,75.863510 
	C126.238525,75.620041 126.335098,75.275558 126.718498,74.954903 
z"/>
<path fill="#D9D9D9" opacity="1.000000" stroke="none" 
	d="
M229.632355,107.408524 
	C229.729187,107.527077 229.389999,107.595413 229.389999,107.595413 
	C229.389999,107.595413 229.535507,107.289963 229.632355,107.408524 
z"/>
<path fill="#D9D9D9" opacity="1.000000" stroke="none" 
	d="
M231.804321,109.504929 
	C231.581528,109.517006 231.453888,109.343727 231.454559,109.109528 
	C231.582886,109.048607 231.899506,109.319565 231.804321,109.504929 
z"/>
<path fill="#000000" opacity="1.000000" stroke="none" 
	d="
M88.899094,89.357925 
	C90.345909,87.684776 91.866364,86.410492 93.694183,84.992493 
	C95.338928,84.067482 96.605026,82.923859 98.040550,82.641479 
	C98.894661,82.473465 100.015221,83.659966 101.008179,84.969994 
	C100.334915,86.855217 99.669464,88.007950 99.004013,89.160683 
	C96.233147,90.720459 93.462273,92.280243 90.358490,94.006409 
	C89.674622,92.700798 89.323677,91.228798 88.899094,89.357925 
z"/>
<path fill="#2378E2" opacity="1.000000" stroke="none" 
	d="
M99.012207,89.525642 
	C99.669464,88.007950 100.334915,86.855217 101.075279,85.350487 
	C102.905823,84.858887 104.256439,89.009193 106.572624,85.283310 
	C106.852066,87.739525 106.890251,90.400093 106.852127,93.415436 
	C104.190681,92.477005 101.605545,91.183800 99.012207,89.525642 
z"/>
<path fill="#F6F6F6" opacity="1.000000" stroke="none" 
	d="
M196.784119,89.968536 
	C193.948730,90.768723 191.292007,91.174500 188.271851,91.635788 
	C188.271851,89.513802 188.271851,88.139206 188.271851,86.321167 
	C191.505508,87.005043 195.681534,83.898216 196.784119,89.968536 
z"/>
<path fill="#F9F9F9" opacity="1.000000" stroke="none" 
	d="
M193.503693,78.152328 
	C194.537949,79.327148 195.152588,80.448288 195.767242,81.569427 
	C193.496582,82.199570 191.225906,82.829712 188.424576,83.607132 
	C188.222733,81.465324 188.092789,80.086647 187.905441,78.098633 
	C189.884933,78.098633 191.484512,78.098633 193.503693,78.152328 
z"/>
<path fill="#D9D9D9" opacity="1.000000" stroke="none" 
	d="
M131.367767,91.824402 
	C131.030457,89.908852 130.807480,88.353897 130.530975,86.425743 
	C131.744217,86.277260 132.511658,86.044205 133.248123,86.118408 
	C135.802490,86.375755 139.685211,85.066605 139.673477,89.027885 
	C139.669907,90.233246 135.267853,91.459213 132.837540,92.583282 
	C132.515915,92.732033 131.940140,92.331261 131.367767,91.824402 
z"/>
<path fill="#F6F6F6" opacity="1.000000" stroke="none" 
	d="
M136.448303,82.917618 
	C134.525558,82.960281 133.033539,82.960281 131.136841,82.960281 
	C130.980896,81.517082 130.829483,80.115952 130.564392,77.662796 
	C133.524063,78.214760 135.963547,78.669708 138.403015,79.124664 
	C137.895020,80.374756 137.387024,81.624855 136.448303,82.917618 
z"/>
<path fill="#F9F9F9" opacity="1.000000" stroke="none" 
	d="
M218.420471,90.899719 
	C214.266037,91.654732 211.223373,90.584160 210.187134,86.704094 
	C209.303192,83.394196 210.031631,79.822365 213.719055,79.009834 
	C216.002838,78.506607 219.389923,79.324371 221.132080,80.856468 
	C224.258118,83.605553 223.045441,87.509087 218.420471,90.899719 
z"/>
</svg>